<svg viewBox="0 0 559 607" xmlns="http://www.w3.org/2000/svg" fill-rule="evenodd" clip-rule="evenodd"
    stroke-linejoin="round" stroke-miterlimit="2">
    <g transform="translate(-335.602 -960.339)">
        <g id="spaceship">
            <path
                d="M524.583 1128.02c4.545-2.69 7.556-9.15 7.179-16.55-.485-9.53-6.396-16.97-13.201-16.62-6.805.34-11.929 8.35-11.443 17.88.304 5.96 2.736 11.11 6.182 14.04 3.003 47.56 43.004 76.15 44.905 77.48l6.369-9.1c-.411-.29-36.155-25.82-39.991-67.13zm169.315 0c-4.545-2.69-7.555-9.15-7.179-16.55.485-9.53 6.396-16.97 13.201-16.62 6.806.34 11.929 8.35 11.444 17.88-.304 5.96-2.736 11.11-6.182 14.04-3.003 47.56-43.004 76.15-44.905 77.48l-6.369-9.1c.41-.29 36.154-25.82 39.99-67.13z"
                fill="#17b794" fill-rule="nonzero" />
            <ellipse cx="610.124" cy="1349.6" rx="120.296" ry="99.321" fill="#e14594" />
            <path
                d="M610.124 1249.05c-66.438 0-120.296 44.47-120.296 99.32 0 13.99 3.508 27.29 9.827 39.37 30.283 13.58 68.682 21.7 110.469 21.7 41.787 0 80.186-8.12 110.469-21.7 6.318-12.08 9.827-25.38 9.827-39.37 0-54.85-53.858-99.32-120.296-99.32z"
                fill="#985677" fill-rule="nonzero" />
            <ellipse cx="615.059" cy="1273.11" rx="279.457" ry="69.71" fill="gold" />
            <path
                d="M615.059 1328.63c-154.339 0-279.457-31.21-279.457-69.71 0 60.99 125.117 110.43 279.457 110.43 154.34 0 279.457-49.44 279.457-110.43 0 38.5-125.118 69.71-279.457 69.71z"
                fill="#e14594" fill-rule="nonzero" />
            <ellipse cx="615.059" cy="1230.54" rx="153.036" ry="28.378" fill="#f9cf58" />
            <path
                d="M669.963 1255.22v-117.83c0-33.05-26.791-59.84-59.839-59.84-33.049 0-59.84 26.79-59.84 59.84v117.83h119.679z"
                fill="#17b794" fill-rule="nonzero" />
            <g fill-rule="nonzero">
                <path
                    d="M610.153 1175.73c24.206 0 43.829-19.63 43.829-43.83h-87.659c.001 24.2 19.624 43.83 43.83 43.83z"
                    fill="#212121" />
                <path
                    d="M637.219 1166.36c-6.524-9.43-16.225-15.41-27.065-15.41s-20.541 5.98-27.065 15.41c7.454 5.86 16.847 9.37 27.065 9.37s19.611-3.51 27.065-9.37z"
                    fill="red" />
            </g>
            <circle cx="611.175" cy="1072.46" r="26.931" fill="#fff" />
            <path
                d="M586.713 1053.91c10.23-13.49 29.527-16.14 43.015-5.91s16.139 29.52 5.909 43.01c-10.23 13.49-29.526 16.14-43.015 5.91-13.488-10.23-16.139-29.52-5.909-43.01zm6.008 4.55c-7.717 10.18-5.718 24.74 4.458 32.45 10.176 7.72 24.733 5.72 32.45-4.45 7.717-10.18 5.718-24.74-4.458-32.45-10.176-7.72-24.733-5.72-32.45 4.45z"
                fill="#17b794" fill-rule="nonzero" />
            <circle cx="610.421" cy="1072.56" r="3.771" fill="#212121" />
            <path
                d="M610.124 960.339c-84.836 0-153.609 68.771-153.609 153.611v142.5h.573c0 15.67 68.516 28.38 153.036 28.38 84.519 0 153.036-12.71 153.036-28.38h.573v-142.5c-.001-84.84-68.774-153.611-153.609-153.611z"
                fill="#98edf4" fill-opacity=".25" fill-rule="nonzero" />
            <path d="M740.29 1075.08s12.338 29.61 9.871 91.3m.003 4.32h-.176" fill="#fff" fill-rule="nonzero" />
        </g>
        <ellipse id="shadow" cx="614.398" cy="1548.93" rx="181.677" ry="18.174" fill="#aaa" />
    </g>
</svg>