<svg xmlns="http://www.w3.org/2000/svg" width="50" height="47.917" viewBox="0 0 50 47.917">
  <path id="github-image" d="M25,.5A24.783,24.783,0,0,0,0,25.067,24.608,24.608,0,0,0,17.094,48.375c1.25.231,1.708-.529,1.708-1.181,0-.583-.021-2.129-.031-4.177-6.954,1.481-8.421-3.3-8.421-3.3-1.138-2.835-2.781-3.594-2.781-3.594-2.265-1.523.175-1.492.175-1.492a5.23,5.23,0,0,1,3.829,2.531c2.229,3.756,5.852,2.671,7.281,2.044a5.2,5.2,0,0,1,1.583-3.285C14.885,35.31,9.05,33.2,9.05,23.785a9.386,9.386,0,0,1,2.573-6.592,8.6,8.6,0,0,1,.219-6.5s2.094-.658,6.875,2.519a23.97,23.97,0,0,1,12.5,0c4.75-3.177,6.844-2.519,6.844-2.519a8.833,8.833,0,0,1,.25,6.5,9.424,9.424,0,0,1,2.563,6.592c0,9.438-5.844,11.515-11.406,12.119a5.829,5.829,0,0,1,1.688,4.546c0,3.287-.031,5.929-.031,6.727,0,.644.438,1.413,1.719,1.167A24.533,24.533,0,0,0,50,25.067,24.787,24.787,0,0,0,25,.5Z" transform="translate(0 -0.5)" fill="#4B4D6C"/>
</svg>
