<svg viewBox="0 0 743 172" xmlns="http://www.w3.org/2000/svg" fill-rule="evenodd" clip-rule="evenodd" stroke-linejoin="round" stroke-miterlimit="2"><path d="M492.48 10.348c0-5.348-4.343-9.691-9.693-9.691h-97.892c-5.35 0-9.692 4.343-9.692 9.691v151.637c0 5.348 4.342 9.691 9.692 9.691h97.892c5.35 0 9.692-4.343 9.692-9.691V10.348zM617.624 10.02c0-5.349-4.343-9.692-9.693-9.692H510.04c-5.35 0-9.692 4.343-9.692 9.692v151.636c0 5.35 4.343 9.692 9.692 9.692h97.892c5.35 0 9.693-4.343 9.693-9.692V10.02zM742.768 9.692c0-5.349-4.342-9.692-9.692-9.692h-97.892c-5.35 0-9.692 4.343-9.692 9.692v151.636c0 5.35 4.342 9.692 9.692 9.692h97.892c5.35 0 9.692-4.343 9.692-9.692V9.692z" fill="#fffc31"/><g><path d="M116.93 10.32c0-5.334-4.33-9.663-9.663-9.663H9.663C4.33.657 0 4.987 0 10.32v151.693c0 5.334 4.33 9.663 9.663 9.663h97.604c5.334 0 9.663-4.33 9.663-9.663V10.32zM241.706 9.992c0-5.334-4.33-9.664-9.663-9.664h-97.604c-5.334 0-9.664 4.33-9.664 9.664v151.693c0 5.333 4.33 9.663 9.664 9.663h97.604c5.333 0 9.663-4.33 9.663-9.663V9.992zM366.482 9.664c0-5.334-4.33-9.664-9.663-9.664h-97.604c-5.334 0-9.664 4.33-9.664 9.664v151.692c0 5.334 4.33 9.664 9.664 9.664h97.604c5.333 0 9.663-4.33 9.663-9.664V9.664z" fill="#fffc31"/></g><g><path d="M.002 119.244v-97.41h41.471c4.547 0 8.68.96 12.4 2.743 3.72 1.784 7.027 4.253 9.92 7.409 2.756 3.155 4.96 6.585 6.476 10.427 1.516 3.842 2.342 7.82 2.342 11.8 0 5.487-1.24 10.7-3.858 15.64-2.617 4.939-6.062 8.918-10.609 12.073-4.546 3.156-9.782 4.665-15.982 4.665H19.015v32.653H.002zM19.015 69.99H41.06c2.342 0 4.409-.686 6.2-1.92 1.791-1.236 3.307-3.156 4.409-5.626 1.102-2.332 1.653-5.076 1.653-8.232 0-3.43-.689-6.311-1.791-8.643-1.24-2.333-2.893-4.116-4.822-5.351-2.067-1.235-4.134-1.784-6.476-1.784H19.015V69.99zM78.126 97.979c0-4.665 1.378-8.781 3.996-12.348 2.618-3.43 6.2-6.174 10.885-8.095 4.684-1.92 10.057-2.881 16.12-2.881 3.03 0 6.062.274 9.231.686 3.169.411 5.787 1.235 8.129 2.195v-3.842c0-4.527-1.378-8.094-3.996-10.564-2.755-2.47-6.75-3.704-12.124-3.704-3.996 0-7.716.686-11.298 2.058-3.582 1.372-7.302 3.43-11.298 6.036l-5.925-12.073c4.823-3.156 9.645-5.488 14.743-6.997a53.688 53.688 0 0115.707-2.333c10.333 0 18.324 2.607 24.111 7.684 5.649 5.076 8.542 12.485 8.542 21.951v22.913c0 1.92.414 3.292 1.103 4.116.688.823 1.79 1.372 3.306 1.509v14.954c-1.653.275-3.169.55-4.409.686-1.377.138-2.48.275-3.444.275-3.72 0-6.476-.823-8.267-2.47-1.929-1.646-3.169-3.704-3.582-6.036l-.413-3.705c-3.17 3.979-7.027 7.134-11.712 9.33-4.684 2.195-9.506 3.292-14.329 3.292-4.822 0-9.093-.96-12.813-3.018-3.858-1.92-6.89-4.665-8.956-8.095-2.204-3.292-3.307-7.271-3.307-11.524zm44.916 3.704a25.752 25.752 0 002.48-3.293c.69-1.097.965-2.058.965-3.018V88.1c-2.205-.96-4.547-1.646-7.165-2.195-2.617-.412-4.96-.686-7.302-.686-4.822 0-8.68.96-11.711 3.018-3.169 2.058-4.685 4.802-4.685 8.232 0 1.784.552 3.568 1.516 5.214.964 1.646 2.48 3.018 4.409 3.979 1.929.96 4.271 1.509 6.889 1.509 2.755 0 5.511-.549 8.129-1.646 2.618-.96 4.822-2.333 6.475-3.842zM190.415 119.656c-4.822 0-9.093-.96-13.089-2.881-4.133-1.784-7.44-4.39-10.333-7.82-2.894-3.43-5.236-7.272-6.752-11.662a42.617 42.617 0 01-2.342-13.995c0-5.213.827-10.015 2.48-14.543 1.654-4.527 3.996-8.506 7.027-11.936 2.893-3.43 6.476-6.037 10.609-7.958 3.996-1.783 8.542-2.744 13.502-2.744 5.65 0 10.471 1.235 14.743 3.705 4.27 2.607 7.715 5.9 10.47 10.152V47.352h16.121v68.462c0 7.135-1.653 13.172-5.098 18.385-3.582 5.077-8.267 8.918-14.329 11.662-6.062 2.607-12.951 3.979-20.667 3.979-7.853 0-14.467-1.235-19.84-3.842-5.373-2.744-10.058-6.31-13.916-11.113l10.058-9.741c2.756 3.43 6.2 6.037 10.471 7.958 4.134 1.92 8.543 2.88 13.227 2.88 3.996 0 7.578-.685 10.885-2.057 3.169-1.51 5.787-3.705 7.853-6.586 1.93-3.018 2.894-6.86 2.894-11.525v-9.055c-2.343 4.116-5.787 7.272-10.058 9.467-4.41 2.332-9.094 3.43-13.916 3.43zm6.2-14.68c2.067 0 3.996-.275 5.787-.96 1.791-.687 3.582-1.51 5.098-2.607 1.515-1.098 2.893-2.47 4.133-3.98 1.24-1.508 2.067-3.018 2.756-4.527v-17.15c-1.103-2.88-2.618-5.35-4.547-7.408-2.067-2.058-4.271-3.705-6.613-4.94a19.029 19.029 0 00-7.716-1.646c-2.893 0-5.374.549-7.716 1.784-2.342 1.234-4.27 2.88-5.924 4.939-1.654 2.195-2.894 4.527-3.72 7.134-.965 2.607-1.378 5.35-1.378 8.232 0 2.881.551 5.625 1.515 8.232.965 2.607 2.48 4.802 4.272 6.723 1.79 1.92 3.857 3.43 6.337 4.527 2.343 1.098 4.96 1.647 7.716 1.647zM283.003 120.616c-5.786 0-11.022-.96-15.706-3.018-4.685-1.92-8.68-4.665-11.987-8.095-3.307-3.292-5.787-7.271-7.578-11.799a36.737 36.737 0 01-2.756-13.994c0-6.86 1.516-13.171 4.685-18.796 3.031-5.626 7.44-10.153 13.227-13.72 5.649-3.43 12.4-5.077 20.253-5.077 7.854 0 14.605 1.647 20.254 5.077 5.649 3.567 9.92 7.957 12.951 13.582a39.644 39.644 0 014.409 18.248c0 1.098 0 2.195-.138 3.293-.138 1.234-.138 2.195-.275 2.88h-55.8c.412 3.705 1.515 6.86 3.306 9.605 1.653 2.744 3.995 4.802 6.889 6.174 2.755 1.509 5.786 2.195 8.955 2.195 3.72 0 7.165-.823 10.472-2.744 3.168-1.784 5.373-4.116 6.613-6.997l15.845 4.39c-1.792 3.705-4.272 6.86-7.44 9.741-3.307 2.881-7.165 5.077-11.574 6.586-4.409 1.646-9.231 2.47-14.605 2.47zm-18.875-43.08h37.751c-.413-3.704-1.378-6.86-3.03-9.604-1.792-2.607-3.997-4.802-6.752-6.311-2.756-1.51-5.787-2.195-9.231-2.195-3.307 0-6.338.686-8.956 2.195-2.756 1.51-4.96 3.704-6.613 6.311-1.791 2.744-2.756 5.9-3.17 9.604zM393.366 38.434H362.09v80.81h-18.876v-80.81h-31.276v-16.6h81.428v16.6zM394.88 92.353v-45h18.462v41.022c0 5.488.964 9.604 3.031 12.348 2.067 2.88 4.96 4.253 8.956 4.253 2.342 0 4.822-.549 7.164-1.51a22.907 22.907 0 006.476-4.253c1.929-1.92 3.582-4.39 4.96-7.271v-44.59h18.462v51.313c0 1.92.414 3.292 1.103 4.116.688.823 1.79 1.372 3.306 1.509v14.954c-1.79.275-3.306.55-4.546.686-1.24.138-2.48.138-3.445.138-3.307 0-6.062-.824-7.991-2.333-2.067-1.509-3.307-3.567-3.72-6.174l-.414-5.762c-3.168 4.802-7.302 8.506-12.4 10.976-5.097 2.607-10.609 3.841-16.67 3.841-7.441 0-13.09-2.47-16.948-7.271-3.858-4.802-5.787-11.8-5.787-20.992zM523.703 63.267c-5.649 0-10.61 1.098-15.018 3.156-4.409 2.195-7.578 5.35-9.507 9.33v43.491h-18.462V47.352h16.947v15.366c2.617-4.939 5.786-8.78 9.782-11.661 3.996-2.882 8.129-4.39 12.538-4.665h2.342c.551 0 .965 0 1.378.137v16.738zM601.136 119.244h-18.462V78.908c0-5.762-.965-10.016-3.031-12.622-2.067-2.607-4.823-3.98-8.405-3.98-2.48 0-4.96.687-7.44 1.922-2.618 1.234-4.822 3.018-6.889 5.213-2.067 2.333-3.444 4.94-4.409 7.82v41.983h-18.462V47.352h16.671V60.66c1.791-3.155 4.133-5.762 7.027-7.957 2.893-2.058 6.2-3.704 9.92-4.94 3.72-1.097 7.578-1.646 11.711-1.646 4.547 0 8.267.824 11.16 2.333 2.894 1.646 4.96 3.841 6.614 6.448 1.515 2.744 2.48 5.762 3.169 9.192.55 3.43.826 6.86.826 10.29v44.864zM650.736 120.616c-5.786 0-11.022-.96-15.706-3.018-4.685-1.92-8.68-4.665-11.987-8.095-3.307-3.292-5.787-7.271-7.578-11.799a36.737 36.737 0 01-2.756-13.994c0-6.86 1.516-13.171 4.685-18.796 3.031-5.626 7.44-10.153 13.227-13.72 5.649-3.43 12.4-5.077 20.253-5.077 7.854 0 14.605 1.647 20.254 5.077 5.649 3.567 9.92 7.957 12.951 13.582a39.644 39.644 0 014.409 18.248c0 1.098 0 2.195-.138 3.293-.138 1.234-.138 2.195-.275 2.88h-55.801c.413 3.705 1.516 6.86 3.307 9.605 1.653 2.744 3.995 4.802 6.889 6.174 2.755 1.509 5.786 2.195 8.955 2.195 3.72 0 7.165-.823 10.472-2.744 3.168-1.784 5.373-4.116 6.613-6.997l15.845 4.39c-1.792 3.705-4.272 6.86-7.44 9.741-3.307 2.881-7.165 5.077-11.574 6.586-4.409 1.646-9.231 2.47-14.605 2.47zm-18.875-43.08h37.751c-.413-3.704-1.378-6.86-3.031-9.604-1.791-2.607-3.996-4.802-6.751-6.311-2.756-1.51-5.787-2.195-9.231-2.195-3.307 0-6.338.686-8.956 2.195-2.756 1.51-4.96 3.704-6.613 6.311-1.792 2.744-2.756 5.9-3.17 9.604zM742.773 63.267c-5.649 0-10.609 1.098-15.018 3.156-4.409 2.195-7.578 5.35-9.506 9.33v43.491h-18.463V47.352h16.947v15.366c2.618-4.939 5.787-8.78 9.782-11.661 3.996-2.882 8.13-4.39 12.538-4.665h2.342c.552 0 .965 0 1.378.137v16.738z" fill="#096dd9" fill-rule="nonzero"/></g></svg>