<svg viewBox="0 0 921 325" xmlns="http://www.w3.org/2000/svg" fill-rule="evenodd" clip-rule="evenodd" stroke-linejoin="round" stroke-miterlimit="2"><path d="M139.062 303.677c.3-3.664.276-10.854-3.1-18.966-3.898-9.383-15.655-13.423-15.655-13.423s-2.844 13.551 2.694 22.477c1.784 2.877 5.175 5.697 8.352 7.931a144.376 144.376 0 01-16.782-5.985c.919-3.458 2.153-10.444.262-18.91-2.167-9.716-12.831-15.618-12.831-15.618s-5.044 12.596-1.219 22.152c1.253 3.119 4.101 6.471 6.824 9.187a151.153 151.153 0 01-10.156-5.427 101.649 101.649 0 01-5.726-3.361c1.465-3.097 3.951-9.718 3.559-18.4-.435-9.747-9.721-17.258-9.721-17.258s-7.017 11.3-4.947 21.168c.725 3.466 3.182 7.499 5.494 10.708-4.972-3.562-9.89-7.671-14.649-12.254 1.93-2.714 5.498-8.709 6.601-17.218 1.243-9.474-6.442-18.305-6.442-18.305s-8.69 9.709-8.376 19.584c.111 3.407 1.741 7.625 3.39 11.078-4.241-4.493-8.303-9.383-12.124-14.594 2.364-2.365 6.688-7.491 9.145-15.336 2.81-8.937-3.105-18.767-3.105-18.767s-10.045 7.891-11.413 17.478c-.45 3.139.295 7.209 1.233 10.708a155.29 155.29 0 01-9.199-15.819c2.651-1.841 7.787-6.067 11.544-13.322 4.232-8.147.199-18.639.199-18.639s-11.037 5.905-13.992 14.927c-1.015 3.108-.933 7.441-.575 11.095a144.257 144.257 0 01-6.606-17.628c2.805-1.267 8.627-4.474 13.604-10.979 5.47-7.14 3.366-17.957 3.366-17.957s-11.66 3.823-16.042 12.028c-1.615 3.006-2.253 7.571-2.5 11.3a131.647 131.647 0 01-3.463-19.347c2.873-.717 9.126-2.806 15.108-8.307 6.5-5.968 6.307-16.76 6.307-16.76s-11.902 1.702-17.527 8.88c-2.089 2.652-3.491 7.007-4.362 10.579a129.534 129.534 0 01-.261-20.433c2.776-.17 9.334-1.052 16.231-5.463 7.283-4.653 8.937-15.101 8.937-15.101s-11.782-.38-18.431 5.581c-2.665 2.389-4.899 6.824-6.35 10.262a142.205 142.205 0 013.801-21.277c2.742.305 9.189.544 16.545-2.517 7.82-3.25 11.196-13.058 11.196-13.058s-11.307-2.37-18.74 2.256c-2.878 1.789-5.698 5.499-7.676 8.522a154.413 154.413 0 017.414-19.95c2.597.762 8.773 2.092 16.39.387 8.106-1.804 13.024-10.693 13.024-10.693s-10.499-4.212-18.469-1.013c-3.1 1.243-6.476 4.379-8.899 6.966a154.535 154.535 0 0110.702-18.499c2.177 1.116 8.062 3.662 16.028 3.301 8.125-.362 14.388-8.108 14.388-8.108s-9.417-5.849-17.647-4.115c-3.55.745-7.821 3.67-10.641 5.866 4.474-6.282 9.286-11.991 14.287-17.014 1.678 1.313 7.056 5.045 15.152 6.099 7.907 1.035 15.278-5.371 15.278-5.371s-8.101-7.252-16.342-6.981c-3.903.126-9.087 2.638-12.125 4.316a106.632 106.632 0 018.43-7.315 153.587 153.587 0 019.426-7.249c1.446 1.598 5.992 6.055 13.556 8.424 7.448 2.344 15.65-2.587 15.65-2.587s-6.587-8.371-14.581-9.515c-3.729-.535-9.054.955-12.289 2.048 6.983-4.768 13.599-8.449 19.49-11.278.899 1.492 4.526 6.916 11.795 10.681 6.795 3.533 15.544.169 15.544.169s-4.933-9.201-12.448-11.665c-3.927-1.284-10.21-.469-13.29.061a141.557 141.557 0 0113.585-5.495c1.601.787 6.901 3.077 11.699 1.427 7.162-2.459 10.707-7.288 10.707-7.288s-7.394-2.832-11.791-2.087c-5.503.943-10.001 6.295-10.924 7.458a130.831 130.831 0 00-10.819 3.939c2.65-1.819 7.51-5.475 9.387-9.025 3.704-7 .866-17.043.866-17.043s-8.638 3.654-11.08 10.908c-2.646 7.867-1.422 14.372-1.055 15.955a145.007 145.007 0 00-20.133 10.684c2.399-2.409 6.186-6.612 7.356-10.258 2.486-7.692-2.152-17.278-2.152-17.278s-8.029 5.199-9.199 12.925c-1.238 8.166 1.001 14.376 1.717 16.091a155.057 155.057 0 00-12.018 8.782 104.56 104.56 0 00-5.412 4.387c1.925-2.9 4.309-7.059 4.778-10.437 1.132-8.166-5.223-16.98-5.223-16.98s-7.153 6.647-6.959 14.618c.194 7.906 3.144 13.534 4.357 15.527-5.025 4.669-9.904 10.04-14.489 15.976 1.364-3.216 2.858-7.54 2.737-10.846-.314-8.407-8.27-16.138-8.27-16.138s-6.002 7.949-4.391 15.923c1.586 7.883 5.533 13.01 7.114 14.809a155.41 155.41 0 00-11.612 18.736c.827-3.499 1.625-8.266.895-11.648-1.804-8.394-11.162-14.753-11.162-14.753s-4.624 9.053-1.596 16.779c3.013 7.699 7.936 12.158 9.817 13.655a156.493 156.493 0 00-8.028 19.589c.155-3.542.02-7.967-1.209-10.99-3.299-8.11-13.832-12.843-13.832-12.843s-3.042 9.912 1.374 17.143c4.251 6.971 9.764 10.576 12.067 11.861a145.066 145.066 0 00-4.305 19.542c-.518-3.317-1.412-7.07-2.979-9.565-4.749-7.564-16.172-10.456-16.172-10.456s-1.302 10.504 4.41 16.982c5.286 5.999 11.191 8.684 13.905 9.673a134.418 134.418 0 00-.538 19.577c-1.102-3.199-2.649-6.727-4.627-8.913C11.984 152.253 0 151.368 0 151.368s.547 10.787 7.438 16.291c6.428 5.136 12.904 6.768 15.767 7.264a133.805 133.805 0 002.504 18.4c-1.653-2.946-3.781-6.075-6.083-7.872-7.352-5.711-19.553-4.47-19.553-4.47s2.466 10.738 10.369 15.048c7.254 3.958 13.943 4.495 16.985 4.502a145.002 145.002 0 005.895 17.621c-2.2-2.696-4.928-5.535-7.603-6.954-8.4-4.438-20.438-1.026-20.438-1.026s4.377 10.355 13.078 13.285c8.037 2.704 14.881 2.038 17.913 1.512a157.19 157.19 0 008.904 16.489c-2.718-2.365-6.021-4.795-9.01-5.758-9.218-2.974-20.719 2.587-20.719 2.587s6.239 9.627 15.501 11.03c8.564 1.297 15.335-.592 18.281-1.661a157.915 157.915 0 0010.963 14.204c-2.969-1.714-6.35-3.303-9.252-3.704-9.793-1.352-20.365 6.272-20.365 6.272s7.975 8.569 17.531 8.34c8.512-.208 14.819-3.086 17.749-4.728a141.098 141.098 0 0012.628 11.59c-3.056-1.058-6.369-1.879-9.097-1.777-10.079.373-19.355 9.91-19.355 9.91s9.532 7.201 19.099 5.271c8.362-1.685 14.131-5.581 16.849-7.774 3.052 2.104 6.108 4.014 9.165 5.699a150.053 150.053 0 005.736 3.253c-3.371-.561-7.018-.851-9.861-.239-10.06 2.161-17.691 13.384-17.691 13.384s10.857 5.549 20.128 1.918c8.222-3.224 13.363-8.266 15.655-10.921a150.955 150.955 0 0015.737 6.326c-3.438.044-7.07.406-9.769 1.504-9.73 3.956-15.408 16.591-15.408 16.591s11.892 3.649 20.564-1.647c7.651-4.665 11.916-10.597 13.768-13.686 13.924 3.692 22.503 4.234 22.503 4.234l.252-2.498.256-2.498s-6.698-.457-17.952-3.003M910.377 196.028c7.897-4.309 10.364-15.048 10.364-15.048s-12.202-1.241-19.552 4.471c-2.303 1.797-4.431 4.926-6.085 7.871a133.048 133.048 0 002.505-18.399c2.864-.494 9.334-2.128 15.761-7.265 6.897-5.504 7.444-16.291 7.444-16.291s-11.985.886-18.102 7.649c-1.979 2.191-3.526 5.714-4.629 8.913.31-6.601.106-13.145-.542-19.577 2.719-.989 8.623-3.673 13.909-9.672 5.712-6.479 4.411-16.983 4.411-16.983s-11.422 2.892-16.172 10.456c-1.567 2.498-2.462 6.251-2.979 9.571a145.776 145.776 0 00-4.3-19.548c2.297-1.284 7.811-4.89 12.062-11.861 4.421-7.23 1.374-17.142 1.374-17.142s-10.534 4.732-13.837 12.842c-1.224 3.023-1.36 7.449-1.204 10.991a156.346 156.346 0 00-8.029-19.589c1.881-1.497 6.805-5.956 9.818-13.656 3.027-7.726-1.596-16.779-1.596-16.779s-9.353 6.359-11.162 14.753c-.726 3.383.072 8.154.895 11.65a155.58 155.58 0 00-11.612-18.737c1.581-1.8 5.528-6.926 7.113-14.809 1.607-7.975-4.39-15.923-4.39-15.923s-7.956 7.73-8.271 16.138c-.121 3.306 1.374 7.629 2.743 10.845-4.594-5.936-9.469-11.307-14.495-15.976 1.214-1.993 4.164-7.62 4.358-15.527.193-7.971-6.954-14.618-6.954-14.618s-6.356 8.814-5.224 16.98c.465 3.378 2.849 7.538 4.774 10.437a103.61 103.61 0 00-5.413-4.386 155.141 155.141 0 00-12.017-8.783c.716-1.712 2.96-7.924 1.721-16.09-1.169-7.726-9.198-12.925-9.198-12.925s-4.643 9.585-2.157 17.277c1.175 3.647 4.957 7.849 7.36 10.263-7.312-4.643-14.15-8.101-20.137-10.689.367-1.583 1.591-8.088-1.055-15.954C805.435 3.653 796.798 0 796.798 0s-2.835 10.042.865 17.043c1.871 3.547 6.737 7.203 9.387 9.024a131.199 131.199 0 00-10.819-3.939c-.923-1.163-5.421-6.515-10.919-7.457-4.402-.746-11.796 2.086-11.796 2.086s3.545 4.83 10.707 7.289c4.802 1.649 10.103-.641 11.699-1.427a141.54 141.54 0 0113.59 5.494c-3.081-.529-9.364-1.345-13.295-.061-7.516 2.464-12.448 11.665-12.448 11.665s8.748 3.364 15.544-.168c7.268-3.766 10.895-9.19 11.794-10.682a148.454 148.454 0 0119.491 11.281c-3.236-1.093-8.555-2.585-12.294-2.051-7.99 1.144-14.576 9.515-14.576 9.515s8.202 4.931 15.655 2.588c7.563-2.37 12.109-6.826 13.556-8.424a155.548 155.548 0 019.425 7.249 108.055 108.055 0 018.43 7.315c-3.037-1.676-8.222-4.191-12.134-4.316-8.236-.271-16.332 6.981-16.332 6.981s7.365 6.405 15.273 5.37c8.095-1.054 13.473-4.785 15.152-6.101 5 5.025 9.812 10.737 14.286 17.017-2.814-2.194-7.085-5.122-10.64-5.867-8.231-1.733-17.647 4.116-17.647 4.116s6.263 7.745 14.388 8.108c7.966.36 13.856-2.186 16.027-3.301a154.296 154.296 0 0110.703 18.504c-2.423-2.593-5.799-5.729-8.904-6.971-7.96-3.2-18.465 1.012-18.465 1.012s4.924 8.889 13.024 10.694c7.618 1.704 13.798.374 16.391-.388a153.546 153.546 0 017.413 19.955c-1.977-3.023-4.797-6.734-7.68-8.526-7.428-4.626-18.73-2.257-18.73-2.257s3.37 9.808 11.19 13.058c7.357 3.062 13.803 2.822 16.545 2.517a142.07 142.07 0 013.802 21.278c-1.451-3.436-3.685-7.874-6.35-10.263-6.65-5.96-18.431-5.581-18.431-5.581s1.654 10.449 8.937 15.102c6.897 4.41 13.459 5.293 16.236 5.462.435 6.734.372 13.565-.266 20.438-.871-3.576-2.273-7.932-4.357-10.584-5.63-7.177-17.533-8.879-17.533-8.879s-.193 10.792 6.307 16.759c5.982 5.502 12.236 7.591 15.108 8.307a132.122 132.122 0 01-3.458 19.347c-.246-3.728-.889-8.294-2.5-11.3-4.381-8.204-16.042-12.027-16.042-12.027s-2.108 10.816 3.362 17.957c4.976 6.505 10.8 9.711 13.604 10.978a144.134 144.134 0 01-6.606 17.628c.357-3.654.445-7.987-.575-11.094-2.955-9.022-13.992-14.927-13.992-14.927s-4.034 10.492.199 18.639c3.762 7.254 8.893 11.481 11.544 13.322a153.85 153.85 0 01-9.2 15.819c.939-3.499 1.684-7.569 1.234-10.708-1.368-9.588-11.408-17.478-11.408-17.478s-5.92 9.829-3.111 18.767c2.457 7.845 6.781 12.971 9.151 15.331a154.042 154.042 0 01-12.129 14.596c1.649-3.455 3.279-7.668 3.389-11.076.32-9.875-8.38-19.584-8.38-19.584s-7.675 8.832-6.438 18.305c1.108 8.51 4.672 14.504 6.602 17.218-4.759 4.584-9.672 8.692-14.649 12.252 2.312-3.206 4.774-7.239 5.494-10.705 2.07-9.868-4.948-21.168-4.948-21.168s-9.28 7.511-9.721 17.258c-.391 8.681 2.099 15.302 3.56 18.399a100.01 100.01 0 01-5.731 3.361 149.927 149.927 0 01-10.151 5.427c2.723-2.716 5.571-6.067 6.823-9.186 3.826-9.557-1.218-22.153-1.218-22.153s-10.664 5.903-12.831 15.618c-1.89 8.466-.658 15.453.261 18.911a144.281 144.281 0 01-16.781 5.984c3.177-2.233 6.562-5.054 8.348-7.931 5.542-8.925 2.698-22.476 2.698-22.476s-11.757 4.04-15.655 13.423c-3.371 8.112-3.4 15.301-3.1 18.965-11.249 2.546-17.948 3.003-17.948 3.003l.252 2.498.257 2.498s8.574-.542 22.498-4.234c1.852 3.09 6.118 9.022 13.768 13.687 8.672 5.296 20.564 1.646 20.564 1.646s-5.678-12.635-15.409-16.591c-2.698-1.097-6.33-1.46-9.768-1.504a150.603 150.603 0 0015.737-6.326c2.292 2.655 7.433 7.697 15.654 10.921 9.272 3.632 20.129-1.918 20.129-1.918s-7.631-11.223-17.691-13.384c-2.844-.612-6.485-.322-9.866.24 1.896-1.019 3.806-2.1 5.741-3.253a107.75 107.75 0 009.159-5.7c2.719 2.189 8.493 6.089 16.855 7.775 9.566 1.93 19.098-5.272 19.098-5.272s-9.27-9.537-19.354-9.91c-2.728-.101-6.041.719-9.097 1.778 4.309-3.487 8.54-7.366 12.632-11.59 2.926 1.641 9.232 4.519 17.744 4.727 9.557.23 17.531-8.34 17.531-8.34s-10.572-7.624-20.365-6.272c-2.901.401-6.282 1.99-9.252 3.704a157.74 157.74 0 0010.964-14.204c2.945 1.069 9.712 2.958 18.281 1.661 9.267-1.402 15.505-11.029 15.505-11.029s-11.5-5.562-20.723-2.587c-2.994.963-6.292 3.394-9.01 5.758a158.138 158.138 0 008.904-16.49c3.032.527 9.875 1.193 17.908-1.511 8.705-2.931 13.082-13.285 13.082-13.285s-12.042-3.413-20.437 1.025c-2.675 1.419-5.403 4.258-7.604 6.954 2.313-5.694 4.3-11.58 5.896-17.621 3.042-.007 9.731-.544 16.99-4.502M239.883 110.392v-2.58l10.32-3.87v-72.24l-10.32-3.87v-2.58h30.057c9.03 0 16.125 1.806 21.414 5.547 5.16 3.741 7.74 8.901 7.74 15.48 0 5.031-1.677 9.288-4.902 13.029-3.354 3.741-7.74 6.579-13.029 8.385l24.639 36.765 8.514 3.354v2.58h-17.028l-25.284-39.603h-11.739v33.024l9.675 3.999v2.58h-30.057zm28.767-79.077h-8.385v33.411h9.159c5.418 0 9.933-1.548 13.545-4.773 3.483-3.225 5.289-7.224 5.289-11.997 0-5.16-1.806-9.288-5.289-12.255-3.483-2.967-8.256-4.386-14.319-4.386zM358.692 111.682c-6.837 0-13.029-1.677-18.447-4.902-5.418-3.225-9.675-7.611-12.771-13.287-3.225-5.547-4.773-11.997-4.773-19.221s1.548-13.674 4.773-19.35c3.096-5.676 7.353-10.191 12.771-13.416 5.418-3.225 11.61-4.773 18.447-4.773 6.966 0 13.158 1.548 18.705 4.773 5.418 3.225 9.675 7.74 12.9 13.416 3.096 5.676 4.644 12.126 4.644 19.35 0 7.224-1.548 13.674-4.644 19.221-3.225 5.676-7.482 10.062-12.9 13.287-5.547 3.225-11.739 4.902-18.705 4.902zm2.322-5.676c7.482 0 13.416-2.58 17.931-7.74 4.386-5.16 6.579-12.126 6.579-20.769 0-7.095-1.161-13.287-3.612-18.576-2.58-5.289-5.934-9.288-10.191-12.255-4.257-2.967-9.288-4.386-14.835-4.386-7.482 0-13.545 2.58-18.06 7.74-4.515 5.16-6.837 11.997-6.837 20.64 0 7.095 1.29 13.287 3.741 18.576s5.934 9.417 10.32 12.384c4.386 2.967 9.417 4.386 14.964 4.386zM411.324 110.392v-2.58l9.03-3.225 2.451-60.501-9.804-3.354v-2.58h21.027l25.413 57.147 26.058-57.147h20.253v2.58l-9.546 2.967 1.935 60.888 8.127 3.225v2.58H480.21v-2.58l8.385-3.096-1.29-56.502-28.638 62.694H455.7l-27.477-62.565-1.29 56.373 9.288 3.096v2.58h-24.897zM518.265 110.392v-2.58l6.321-2.451 28.638-67.854h4.257l28.38 67.467 7.224 2.838v2.58H566.64v-2.58l9.288-2.709-8.643-20.769h-27.348l-8.514 20.898 9.675 2.58v2.58h-22.833zm23.865-31.476h22.962l-11.61-27.993-11.352 27.993zM605.34 110.392v-2.58l9.03-3.225V43.828l-9.03-3.096v-2.58h16.899l43.989 55.47V43.828l-10.32-3.096v-2.58h25.413v2.58l-8.901 3.096v67.08h-4.128L620.433 51.31v52.89l10.836 3.612v2.58H605.34z" fill-rule="nonzero"/><path d="M132.942 228.427v-2.58l10.191-3.87v-72.111l-10.062-3.999v-2.58h18.06l50.568 65.661v-59.34l-12.126-3.741v-2.58h29.67v2.58l-10.191 3.87v79.335h-3.999l-54.438-70.305v63.081l12.384 3.999v2.58h-30.057zM273.939 229.717c-5.547 0-10.578-.903-14.964-2.838-4.386-1.935-7.869-4.902-10.32-9.159-2.58-4.128-3.87-9.546-3.87-16.254v-39.474l-9.159-3.225v-2.58h27.606v2.58l-9.159 3.225v38.313c0 8.772 1.935 14.835 5.805 18.318 3.87 3.483 9.159 5.16 15.867 5.16 3.741 0 7.224-.774 10.449-2.322 3.096-1.419 5.547-3.741 7.482-6.837 1.806-2.967 2.709-6.837 2.709-11.61v-41.28l-10.965-2.967v-2.58h26.187v2.58l-9.03 3.096v39.603c0 6.708-1.29 12.126-3.741 16.254-2.451 4.257-5.934 7.224-10.191 9.159-4.257 1.935-9.159 2.838-14.706 2.838zM327.732 228.427v-2.58l9.03-3.225 2.451-60.501-9.804-3.354v-2.58h21.027l25.413 57.147 26.058-57.147h20.253v2.58l-9.546 2.967 1.935 60.888 8.127 3.225v2.58h-26.058v-2.58l8.385-3.096-1.29-56.502-28.638 62.694h-2.967l-27.477-62.565-1.29 56.373 9.288 3.096v2.58h-24.897zM438.801 228.427v-2.58l9.03-3.225v-60.63l-9.03-3.225v-2.58h53.277v18.06h-2.322l-5.418-12.513h-27.219v26.574h19.866l3.354-8.901h2.193v23.091h-2.193l-3.354-8.772h-19.866v29.154h30.186l5.676-14.19h2.193v19.737h-56.373zM512.589 228.427v-2.58l9.159-3.225v-60.63l-9.159-3.225v-2.58h26.058c7.998 0 14.319 1.677 18.834 4.902 4.515 3.225 6.837 7.611 6.837 13.158 0 4.386-1.29 8.127-3.999 11.094-2.838 2.967-6.45 5.289-11.094 6.966l20.511 30.702 7.998 2.838v2.58h-16.125l-21.543-33.54h-9.159v27.606l8.514 3.354v2.58h-26.832zm25.413-66.693h-7.095v27.606h7.74c4.773 0 8.643-1.29 11.481-3.741 2.838-2.451 4.257-5.805 4.257-9.933 0-4.515-1.419-7.869-4.257-10.32-2.838-2.451-6.837-3.612-12.126-3.612zM581.475 228.427v-2.58l6.321-2.451 28.638-67.854h4.257l28.38 67.467 7.224 2.838v2.58H629.85v-2.58l9.288-2.709-8.643-20.769h-27.348l-8.514 20.898 9.675 2.58v2.58h-22.833zm23.865-31.476h22.962l-11.61-27.993-11.352 27.993zM668.937 228.427v-2.58l8.901-3.225v-60.63l-8.901-3.225v-2.58h28.509v2.58l-10.32 3.225v60.888h29.025l6.45-18.576h2.322v24.123h-55.986zM764.526 229.717c-4.515 0-8.514-.387-11.61-1.29-3.225-.903-6.579-2.193-10.062-3.87l-1.161-17.286h2.322l6.192 12.642c2.451 1.806 5.031 2.967 7.482 3.612 2.451.645 5.031 1.032 7.611 1.032 10.191 0 15.222-4.386 15.222-13.158 0-3.225-.774-5.676-2.451-7.482s-4.128-3.483-7.224-5.031c-3.225-1.419-6.966-3.225-11.352-5.289-5.289-2.451-9.03-5.031-11.481-7.74-2.451-2.58-3.612-6.321-3.612-11.094 0-3.483 1.032-6.708 3.096-9.675 2.064-2.967 4.773-5.418 8.256-7.353 3.354-1.935 6.966-2.838 10.965-2.838 3.483 0 6.579.387 9.417 1.29s5.676 2.064 8.643 3.483l1.032 16.641h-2.322l-5.031-11.739c-1.935-1.548-3.741-2.709-5.547-3.483-1.806-.645-3.87-1.032-6.192-1.032-4.515 0-7.869 1.161-10.32 3.354-2.451 2.322-3.741 5.289-3.741 8.772 0 2.451.645 4.515 1.806 6.192 1.161 1.677 2.838 3.225 5.289 4.644a103.384 103.384 0 009.03 4.902c4.773 2.193 8.514 4.257 11.481 6.192 2.967 1.935 5.031 4.128 6.45 6.579 1.419 2.451 2.064 5.418 2.064 9.159 0 3.87-1.032 7.224-3.225 10.191-2.193 2.967-5.16 5.418-8.772 7.095-3.741 1.677-7.74 2.58-12.255 2.58zM317.525 309.597c2.747 0 5.025-.737 6.901-2.278 1.809-1.541 2.814-3.551 2.948-5.963h3.819c-.134 2.144-.804 4.154-2.077 5.896-1.206 1.809-2.881 3.149-4.958 4.154-2.01 1.005-4.221 1.541-6.633 1.541-4.623 0-8.308-1.608-10.988-4.891-2.747-3.216-4.087-7.504-4.087-12.998v-1.139c0-3.484.603-6.633 1.809-9.313 1.206-2.68 3.015-4.757 5.293-6.164 2.278-1.474 4.891-2.211 7.973-2.211 3.886 0 7.102 1.139 9.581 3.484 2.546 2.278 3.886 5.36 4.087 9.112h-3.819c-.134-2.747-1.139-5.025-2.948-6.7-1.809-1.742-4.154-2.546-6.901-2.546-3.551 0-6.298 1.273-8.241 3.819-1.943 2.546-2.948 6.097-2.948 10.72v1.139c0 4.489 1.005 8.04 2.948 10.586 1.943 2.546 4.69 3.752 8.241 3.752zM364.701 312.277c-.402-1.139-.67-2.747-.804-4.958a12.787 12.787 0 01-5.226 4.154c-2.144 1.005-4.355 1.474-6.767 1.474-3.417 0-6.164-.938-8.241-2.881-2.077-1.876-3.149-4.288-3.149-7.169 0-3.484 1.407-6.164 4.288-8.174 2.881-2.01 6.834-3.015 11.993-3.015h7.102v-4.02c0-2.546-.804-4.556-2.345-5.963-1.541-1.474-3.819-2.211-6.834-2.211-2.68 0-4.958.737-6.767 2.077-1.809 1.407-2.68 3.082-2.68 5.092l-3.886-.067c0-2.814 1.273-5.226 3.886-7.303 2.613-2.077 5.829-3.082 9.648-3.082 3.953 0 7.102 1.005 9.38 2.948 2.278 2.01 3.417 4.757 3.484 8.241v16.75c0 3.484.335 6.03 1.072 7.705v.402h-4.154zm-12.328-2.814c2.613 0 4.958-.603 7.035-1.876s3.551-2.948 4.489-5.092v-7.772h-7.035c-3.886 0-6.901.737-9.112 2.144-2.211 1.34-3.35 3.283-3.35 5.695 0 2.01.737 3.618 2.211 4.958 1.474 1.273 3.417 1.943 5.762 1.943z" fill-rule="nonzero"/><path d="M382.029 262.027h3.953v50.25h-3.953z"/><path d="M412.989 309.597c2.747 0 5.025-.737 6.901-2.278 1.809-1.541 2.814-3.551 2.948-5.963h3.819c-.134 2.144-.804 4.154-2.077 5.896-1.206 1.809-2.881 3.149-4.958 4.154-2.01 1.005-4.221 1.541-6.633 1.541-4.623 0-8.308-1.608-10.988-4.891-2.747-3.216-4.087-7.504-4.087-12.998v-1.139c0-3.484.603-6.633 1.809-9.313 1.206-2.68 3.015-4.757 5.293-6.164 2.278-1.474 4.891-2.211 7.973-2.211 3.886 0 7.102 1.139 9.581 3.484 2.546 2.278 3.886 5.36 4.087 9.112h-3.819c-.134-2.747-1.139-5.025-2.948-6.7-1.809-1.742-4.154-2.546-6.901-2.546-3.551 0-6.298 1.273-8.241 3.819-1.943 2.546-2.948 6.097-2.948 10.72v1.139c0 4.489 1.005 8.04 2.948 10.586 1.943 2.546 4.69 3.752 8.241 3.752zM460.567 307.788c-2.345 3.417-6.097 5.159-11.256 5.159-3.819 0-6.7-1.139-8.643-3.283-1.943-2.211-2.948-5.427-3.015-9.782v-22.981h3.886v22.512c0 6.767 2.747 10.117 8.174 10.117 5.695 0 9.313-2.345 10.787-7.035v-25.594h3.953v35.376h-3.819l-.067-4.489z" fill-rule="nonzero"/><path d="M478.408 262.027h3.953v50.25h-3.953z"/><path d="M518.682 312.277c-.402-1.139-.67-2.747-.804-4.958a12.787 12.787 0 01-5.226 4.154c-2.144 1.005-4.355 1.474-6.767 1.474-3.417 0-6.164-.938-8.241-2.881-2.077-1.876-3.149-4.288-3.149-7.169 0-3.484 1.407-6.164 4.288-8.174 2.881-2.01 6.834-3.015 11.993-3.015h7.102v-4.02c0-2.546-.804-4.556-2.345-5.963-1.541-1.474-3.819-2.211-6.834-2.211-2.68 0-4.958.737-6.767 2.077-1.809 1.407-2.68 3.082-2.68 5.092l-3.886-.067c0-2.814 1.273-5.226 3.886-7.303 2.613-2.077 5.829-3.082 9.648-3.082 3.953 0 7.102 1.005 9.38 2.948 2.278 2.01 3.417 4.757 3.484 8.241v16.75c0 3.484.335 6.03 1.072 7.705v.402h-4.154zm-12.328-2.814c2.613 0 4.958-.603 7.035-1.876s3.551-2.948 4.489-5.092v-7.772h-7.035c-3.886 0-6.901.737-9.112 2.144-2.211 1.34-3.35 3.283-3.35 5.695 0 2.01.737 3.618 2.211 4.958 1.474 1.273 3.417 1.943 5.762 1.943zM541.638 267.789v9.112h7.303v3.216h-7.303v23.584c0 1.943.335 3.417 1.072 4.355.67.938 1.876 1.407 3.551 1.407.67 0 1.675-.067 3.149-.268l.201 3.149c-1.072.402-2.412.603-4.221.603-2.68 0-4.623-.804-5.829-2.345-1.206-1.541-1.876-3.886-1.876-6.901v-23.584h-6.499v-3.216h6.499v-9.112h3.953zM557.617 294.053c0-3.417.67-6.432 1.943-9.179 1.34-2.747 3.216-4.891 5.628-6.365 2.412-1.541 5.159-2.278 8.174-2.278 4.757 0 8.576 1.675 11.457 4.958 2.948 3.283 4.422 7.705 4.422 13.132v.804c0 3.417-.67 6.499-2.01 9.246-1.34 2.747-3.149 4.824-5.561 6.365-2.412 1.474-5.159 2.211-8.241 2.211-4.69 0-8.509-1.675-11.39-4.958-2.948-3.35-4.422-7.705-4.422-13.132v-.804zm3.953 1.072c0 4.221 1.072 7.705 3.283 10.452 2.144 2.68 5.025 4.02 8.576 4.02s6.432-1.34 8.576-4.02c2.211-2.747 3.35-6.298 3.35-10.787v-.737c0-2.68-.536-5.159-1.541-7.437-1.005-2.211-2.412-3.953-4.221-5.226-1.809-1.206-3.886-1.809-6.231-1.809-3.484 0-6.298 1.34-8.509 4.087-2.211 2.747-3.283 6.298-3.283 10.72v.737zM616.982 280.184a15.919 15.919 0 00-2.613-.201c-2.479 0-4.556.67-6.231 2.077-1.675 1.34-2.881 3.283-3.618 5.896v24.321h-3.886v-35.376h3.819l.067 5.628c2.077-4.221 5.427-6.298 9.983-6.298 1.072 0 1.943.134 2.613.402l-.134 3.551z" fill-rule="nonzero"/></svg>